<svg xmlns="http://www.w3.org/2000/svg" width="17" height="17" viewBox="0 0 17 10" fill="none"><script xmlns=""/>
    <path transform="rotate(90) translate(-3 -10)" d="M4.3122 5.83481L12.4627 5.83475L11.2676 7.02984C10.8315 7.46597 10.8315 8.17308 11.2676 8.60921C11.7037 9.04534 12.4108 9.04534 12.847 8.60921L15.9483 5.50784C16.3845 5.07171 16.3845 4.3646 15.9483 3.92847L12.847 0.827098C12.4108 0.390967 11.7037 0.390968 11.2676 0.827097C10.8315 1.26323 10.8315 1.97034 11.2676 2.40646L12.4623 3.60119L4.31365 3.60125L5.50784 2.40707C5.94397 1.97094 5.94397 1.26383 5.50784 0.8277C5.07171 0.39157 4.3646 0.39157 3.92847 0.8277L0.827098 3.92907C0.390967 4.3652 0.390968 5.07231 0.827098 5.50844L3.92847 8.60981C4.3646 9.04594 5.07171 9.04594 5.50784 8.60981C5.94397 8.17368 5.94397 7.46657 5.50784 7.03044L4.3122 5.83481Z" fill="#111417" stroke="white" stroke-linecap="round" stroke-linejoin="round"/>
</svg>